<?xml version="1.0" encoding="UTF-8" standalone="no"?>
<!DOCTYPE svg PUBLIC "-//W3C//DTD SVG 1.1//EN"
 "http://www.w3.org/Graphics/SVG/1.1/DTD/svg11.dtd">
<!-- Generated by graphviz version 2.38.0 (20140413.2041)
 -->
<!-- Title: Tree Pages: 1 -->
<svg width="236pt" height="165pt"
 viewBox="0.00 0.00 235.50 165.00" xmlns="http://www.w3.org/2000/svg" xmlns:xlink="http://www.w3.org/1999/xlink">
<g id="graph0" class="graph" transform="scale(1 1) rotate(0) translate(4 161)">
<title>Tree</title>
<polygon fill="white" stroke="none" points="-4,4 -4,-161 231.5,-161 231.5,4 -4,4"/>
<!-- 0 -->
<g id="node1" class="node"><title>0</title>
<path fill="#fbeade" stroke="black" d="M153.5,-157C153.5,-157 75.5,-157 75.5,-157 69.5,-157 63.5,-151 63.5,-145 63.5,-145 63.5,-101 63.5,-101 63.5,-95 69.5,-89 75.5,-89 75.5,-89 153.5,-89 153.5,-89 159.5,-89 165.5,-95 165.5,-101 165.5,-101 165.5,-145 165.5,-145 165.5,-151 159.5,-157 153.5,-157"/>
<text text-anchor="middle" x="114.5" y="-141.8" font-family="Helvetica,sans-Serif" font-size="14.00">age &lt;= 60.0</text>
<text text-anchor="middle" x="114.5" y="-126.8" font-family="Helvetica,sans-Serif" font-size="14.00">mse = 0.172</text>
<text text-anchor="middle" x="114.5" y="-111.8" font-family="Helvetica,sans-Serif" font-size="14.00">samples = 6</text>
<text text-anchor="middle" x="114.5" y="-96.8" font-family="Helvetica,sans-Serif" font-size="14.00">value = 0.028</text>
</g>
<!-- 1 -->
<g id="node2" class="node"><title>1</title>
<path fill="#ffffff" stroke="black" d="M95,-53C95,-53 12,-53 12,-53 6,-53 0,-47 0,-41 0,-41 0,-12 0,-12 0,-6 6,-0 12,-0 12,-0 95,-0 95,-0 101,-0 107,-6 107,-12 107,-12 107,-41 107,-41 107,-47 101,-53 95,-53"/>
<text text-anchor="middle" x="53.5" y="-37.8" font-family="Helvetica,sans-Serif" font-size="14.00">mse = 0.158</text>
<text text-anchor="middle" x="53.5" y="-22.8" font-family="Helvetica,sans-Serif" font-size="14.00">samples = 5</text>
<text text-anchor="middle" x="53.5" y="-7.8" font-family="Helvetica,sans-Serif" font-size="14.00">value = &#45;0.062</text>
</g>
<!-- 0&#45;&gt;1 -->
<g id="edge1" class="edge"><title>0&#45;&gt;1</title>
<path fill="none" stroke="black" d="M93.1652,-88.9485C87.4963,-80.1664 81.3618,-70.6629 75.6504,-61.815"/>
<polygon fill="black" stroke="black" points="78.477,-59.7402 70.1131,-53.2367 72.5959,-63.5365 78.477,-59.7402"/>
<text text-anchor="middle" x="64.8481" y="-73.976" font-family="Helvetica,sans-Serif" font-size="14.00">True</text>
</g>
<!-- 2 -->
<g id="node3" class="node"><title>2</title>
<path fill="#e58139" stroke="black" d="M215.5,-53C215.5,-53 137.5,-53 137.5,-53 131.5,-53 125.5,-47 125.5,-41 125.5,-41 125.5,-12 125.5,-12 125.5,-6 131.5,-0 137.5,-0 137.5,-0 215.5,-0 215.5,-0 221.5,-0 227.5,-6 227.5,-12 227.5,-12 227.5,-41 227.5,-41 227.5,-47 221.5,-53 215.5,-53"/>
<text text-anchor="middle" x="176.5" y="-37.8" font-family="Helvetica,sans-Serif" font-size="14.00">mse = 0.0</text>
<text text-anchor="middle" x="176.5" y="-22.8" font-family="Helvetica,sans-Serif" font-size="14.00">samples = 1</text>
<text text-anchor="middle" x="176.5" y="-7.8" font-family="Helvetica,sans-Serif" font-size="14.00">value = 0.477</text>
</g>
<!-- 0&#45;&gt;2 -->
<g id="edge2" class="edge"><title>0&#45;&gt;2</title>
<path fill="none" stroke="black" d="M136.185,-88.9485C141.946,-80.1664 148.181,-70.6629 153.986,-61.815"/>
<polygon fill="black" stroke="black" points="157.055,-63.5178 159.615,-53.2367 151.203,-59.6779 157.055,-63.5178"/>
<text text-anchor="middle" x="164.698" y="-74.0145" font-family="Helvetica,sans-Serif" font-size="14.00">False</text>
</g>
</g>
</svg>
