<?xml version="1.0" encoding="UTF-8" standalone="no"?>
<!DOCTYPE svg PUBLIC "-//W3C//DTD SVG 1.1//EN"
 "http://www.w3.org/Graphics/SVG/1.1/DTD/svg11.dtd">
<!-- Generated by graphviz version 2.38.0 (20140413.2041)
 -->
<!-- Title: Tree Pages: 1 -->
<svg width="236pt" height="165pt"
 viewBox="0.00 0.00 235.50 165.00" xmlns="http://www.w3.org/2000/svg" xmlns:xlink="http://www.w3.org/1999/xlink">
<g id="graph0" class="graph" transform="scale(1 1) rotate(0) translate(4 161)">
<title>Tree</title>
<polygon fill="white" stroke="none" points="-4,4 -4,-161 231.5,-161 231.5,4 -4,4"/>
<!-- 0 -->
<g id="node1" class="node"><title>0</title>
<path fill="#f6d5bd" stroke="black" d="M148.5,-157C148.5,-157 75.5,-157 75.5,-157 69.5,-157 63.5,-151 63.5,-145 63.5,-145 63.5,-101 63.5,-101 63.5,-95 69.5,-89 75.5,-89 75.5,-89 148.5,-89 148.5,-89 154.5,-89 160.5,-95 160.5,-101 160.5,-101 160.5,-145 160.5,-145 160.5,-151 154.5,-157 148.5,-157"/>
<text text-anchor="middle" x="112" y="-141.8" font-family="Helvetica,sans-Serif" font-size="14.00">age &lt;= 20.0</text>
<text text-anchor="middle" x="112" y="-126.8" font-family="Helvetica,sans-Serif" font-size="14.00">mse = 0.222</text>
<text text-anchor="middle" x="112" y="-111.8" font-family="Helvetica,sans-Serif" font-size="14.00">samples = 6</text>
<text text-anchor="middle" x="112" y="-96.8" font-family="Helvetica,sans-Serif" font-size="14.00">value = 0.0</text>
</g>
<!-- 1 -->
<g id="node2" class="node"><title>1</title>
<path fill="#e58139" stroke="black" d="M90,-53C90,-53 12,-53 12,-53 6,-53 0,-47 0,-41 0,-41 0,-12 0,-12 0,-6 6,-0 12,-0 12,-0 90,-0 90,-0 96,-0 102,-6 102,-12 102,-12 102,-41 102,-41 102,-47 96,-53 90,-53"/>
<text text-anchor="middle" x="51" y="-37.8" font-family="Helvetica,sans-Serif" font-size="14.00">mse = 0.0</text>
<text text-anchor="middle" x="51" y="-22.8" font-family="Helvetica,sans-Serif" font-size="14.00">samples = 2</text>
<text text-anchor="middle" x="51" y="-7.8" font-family="Helvetica,sans-Serif" font-size="14.00">value = 0.333</text>
</g>
<!-- 0&#45;&gt;1 -->
<g id="edge1" class="edge"><title>0&#45;&gt;1</title>
<path fill="none" stroke="black" d="M90.6652,-88.9485C84.9963,-80.1664 78.8618,-70.6629 73.1504,-61.815"/>
<polygon fill="black" stroke="black" points="75.977,-59.7402 67.6131,-53.2367 70.0959,-63.5365 75.977,-59.7402"/>
<text text-anchor="middle" x="62.3481" y="-73.976" font-family="Helvetica,sans-Serif" font-size="14.00">True</text>
</g>
<!-- 2 -->
<g id="node3" class="node"><title>2</title>
<path fill="#ffffff" stroke="black" d="M215.5,-53C215.5,-53 132.5,-53 132.5,-53 126.5,-53 120.5,-47 120.5,-41 120.5,-41 120.5,-12 120.5,-12 120.5,-6 126.5,-0 132.5,-0 132.5,-0 215.5,-0 215.5,-0 221.5,-0 227.5,-6 227.5,-12 227.5,-12 227.5,-41 227.5,-41 227.5,-47 221.5,-53 215.5,-53"/>
<text text-anchor="middle" x="174" y="-37.8" font-family="Helvetica,sans-Serif" font-size="14.00">mse = 0.25</text>
<text text-anchor="middle" x="174" y="-22.8" font-family="Helvetica,sans-Serif" font-size="14.00">samples = 4</text>
<text text-anchor="middle" x="174" y="-7.8" font-family="Helvetica,sans-Serif" font-size="14.00">value = &#45;0.167</text>
</g>
<!-- 0&#45;&gt;2 -->
<g id="edge2" class="edge"><title>0&#45;&gt;2</title>
<path fill="none" stroke="black" d="M133.685,-88.9485C139.446,-80.1664 145.681,-70.6629 151.486,-61.815"/>
<polygon fill="black" stroke="black" points="154.555,-63.5178 157.115,-53.2367 148.703,-59.6779 154.555,-63.5178"/>
<text text-anchor="middle" x="162.198" y="-74.0145" font-family="Helvetica,sans-Serif" font-size="14.00">False</text>
</g>
</g>
</svg>
